<?xml version="1.0" encoding="UTF-8"?>
<svg enable-background="new 0 0 500 500" version="1.1" viewBox="0 0 500 500" xml:space="preserve" xmlns="http://www.w3.org/2000/svg">
<style type="text/css">
	.st0{fill:#010101;}
	.st1{fill:none;}
	.st2{fill:#0055B8;}
	.st3{fill:#FFFFFF;}
</style>
			<path class="st0" d="m123.5 198.9c3.2 2.6 5.1 6.1 5.9 10.4h-11.9c-0.3-1.7-1.1-3-2.4-4-1.2-1-2.7-1.5-4.6-1.5-1.4 0-2.5 0.3-3.3 0.9-0.7 0.6-1.1 1.5-1.1 2.6 0 1.3 0.7 2.3 2.1 2.9s3.5 1.3 6.5 1.9c3.2 0.7 5.8 1.5 7.8 2.3s3.8 2 5.3 3.8c1.5 1.7 2.2 4.1 2.2 7 0 2.4-0.6 4.5-1.9 6.3s-3.2 3.3-5.6 4.3-5.3 1.6-8.7 1.6c-5.6 0-10.1-1.2-13.5-3.7s-5.4-6-6.2-10.7h12.3c0.2 1.8 1 3.2 2.3 4.1s3 1.4 5.1 1.4c1.4 0 2.5-0.3 3.3-1 0.7-0.7 1.1-1.6 1.1-2.6 0-1.4-0.7-2.5-2.1-3.1s-3.6-1.3-6.7-2c-3.1-0.6-5.6-1.3-7.6-2.1-2-0.7-3.7-2-5.1-3.6-1.4-1.7-2.2-3.9-2.2-6.8 0-3.7 1.4-6.8 4.3-9.1 2.8-2.3 6.8-3.5 12-3.5 5.4 0.2 9.6 1.5 12.7 4.2z"/>
			<path class="st0" d="m220.9 218.6h-28.9c0.1 3.1 0.9 5.4 2.4 6.8 1.4 1.4 3.3 2.1 5.5 2.1 1.9 0 3.5-0.5 4.7-1.4s2.1-2.2 2.5-3.7h13.5c-0.5 2.9-1.7 5.6-3.6 7.9-1.8 2.3-4.2 4.1-7 5.4s-6 2-9.5 2c-4.1 0-7.7-0.9-10.9-2.6s-5.6-4.2-7.4-7.4-2.7-7-2.7-11.3c0-4.4 0.9-8.2 2.6-11.4 1.8-3.2 4.2-5.7 7.4-7.4s6.8-2.6 10.9-2.6 7.8 0.8 10.9 2.5 5.6 4.1 7.3 7.1c1.7 3.1 2.6 6.6 2.6 10.6 0.1 1 0 2.1-0.3 3.4zm-14.7-11.6c-1.5-1.4-3.4-2.1-5.6-2.1-2.3 0-4.3 0.7-5.8 2.1s-2.4 3.4-2.6 6.1h16.3c-0.1-2.6-0.8-4.7-2.3-6.1z"/>
			<path class="st0" d="m257.3 199.3c3.6 3 5.9 7 6.9 12.2h-13.5c-0.4-1.8-1.2-3.2-2.5-4.2-1.2-1-2.8-1.5-4.7-1.5-2.2 0-4.1 0.9-5.5 2.6-1.4 1.8-2.2 4.3-2.2 7.7s0.7 6 2.2 7.7c1.4 1.8 3.3 2.6 5.5 2.6 1.9 0 3.5-0.5 4.7-1.5s2.1-2.4 2.5-4.2h13.5c-0.9 5.2-3.2 9.2-6.9 12.2-3.6 3-8.1 4.4-13.5 4.4-4.1 0-7.7-0.9-10.9-2.6s-5.6-4.2-7.4-7.4-2.7-7-2.7-11.3c0-4.4 0.9-8.2 2.6-11.4 1.8-3.2 4.2-5.7 7.4-7.4s6.8-2.6 10.9-2.6c5.4 0.3 9.9 1.8 13.6 4.7z"/>
			<path class="st0" d="m268.7 178.9c1.4-1.3 3.2-1.9 5.5-1.9s4.1 0.6 5.5 1.9 2.1 2.9 2.1 4.8-0.7 3.5-2.1 4.7c-1.4 1.3-3.2 1.9-5.5 1.9s-4.1-0.6-5.5-1.9-2.1-2.8-2.1-4.7 0.7-3.5 2.1-4.8zm11.8 16.5v41.6h-12.8v-41.6h12.8z"/>
			<path class="st0" d="m310.4 197.1c2.3 1.4 4 3.4 5.1 5.9v-7.5h12.7v41.6h-12.7v-7.5c-1.1 2.5-2.8 4.5-5.1 5.9s-5 2.2-8.2 2.2c-3.4 0-6.5-0.9-9.2-2.6s-4.9-4.2-6.4-7.4c-1.6-3.2-2.3-7-2.3-11.3 0-4.4 0.8-8.2 2.3-11.4 1.6-3.2 3.7-5.7 6.4-7.4s5.8-2.6 9.2-2.6c3.2-0.1 5.9 0.6 8.2 2.1zm-10.7 11.7c-1.7 1.8-2.5 4.3-2.5 7.5s0.8 5.7 2.5 7.5 3.9 2.7 6.6 2.7 4.9-0.9 6.6-2.8c1.7-1.8 2.6-4.3 2.6-7.4s-0.9-5.6-2.6-7.4-3.9-2.7-6.6-2.7c-2.8-0.1-5 0.8-6.6 2.6z"/>
			<path class="st0" d="M346.7,181.8v55.2H334v-55.2H346.7z"/>
			<path class="st0" d="m353.4 178.9c1.4-1.3 3.2-1.9 5.5-1.9s4.1 0.6 5.5 1.9 2.1 2.9 2.1 4.8-0.7 3.5-2.1 4.7c-1.4 1.3-3.2 1.9-5.5 1.9s-4.1-0.6-5.5-1.9-2.1-2.8-2.1-4.7 0.7-3.5 2.1-4.8zm11.9 16.5v41.6h-12.8v-41.6h12.8z"/>
			<path class="st0" d="m398.9 198.9c3.2 2.6 5.1 6.1 5.9 10.4h-11.9c-0.3-1.7-1.1-3-2.4-4s-2.7-1.5-4.6-1.5c-1.4 0-2.5 0.3-3.3 0.9-0.7 0.6-1.1 1.5-1.1 2.6 0 1.3 0.7 2.3 2.1 2.9s3.5 1.3 6.5 1.9c3.2 0.7 5.8 1.5 7.8 2.3s3.8 2 5.3 3.8c1.5 1.7 2.2 4.1 2.2 7 0 2.4-0.6 4.5-1.9 6.3s-3.2 3.3-5.6 4.3-5.3 1.6-8.7 1.6c-5.6 0-10.1-1.2-13.5-3.7s-5.4-6-6.2-10.7h12.3c0.2 1.8 1 3.2 2.3 4.1s3 1.4 5.1 1.4c1.4 0 2.5-0.3 3.3-1s1.1-1.6 1.1-2.6c0-1.4-0.7-2.5-2.1-3.1s-3.6-1.3-6.7-2c-3.1-0.6-5.6-1.3-7.6-2.1-2-0.7-3.7-2-5.1-3.6-1.4-1.7-2.2-3.9-2.2-6.8 0-3.7 1.4-6.8 4.3-9.1 2.8-2.3 6.8-3.5 12-3.5 5.3 0.2 9.5 1.5 12.7 4.2z"/>
			<path class="st0" d="m433.1 226.1v11h-5.7c-4.9 0-8.7-1.2-11.4-3.6s-4.1-6.4-4.1-12v-15.3h-5.6v-10.7h5.6v-10.2h12.8v10.2h8.4v10.7h-8.4v15.5c0 1.6 0.3 2.8 1 3.4s1.8 1 3.4 1h4z"/>
		<path class="st1" d="m156 226.4c2.7 0 4.9-0.9 6.6-2.7s2.5-4.3 2.5-7.5-0.8-5.7-2.5-7.5-3.9-2.7-6.6-2.7-4.9 0.9-6.6 2.7-2.6 4.3-2.6 7.4 0.9 5.5 2.6 7.4c1.7 2 3.9 2.9 6.6 2.9z"/>
		<path class="st0" d="m146.9 229.5c1 2.5 2.7 4.5 5 5.9s5 2.2 8.2 2.2c3.4 0 6.5-0.9 9.2-2.6s4.8-4.2 6.4-7.4 2.3-7 2.3-11.3c0-4.4-0.8-8.2-2.3-11.4-1.6-3.2-3.7-5.7-6.4-7.4s-5.8-2.6-9.2-2.6c-3.2 0-5.9 0.7-8.2 2.2-2.3 1.4-4 3.4-5 5.9v-7.5h-12.8v65.7l12.8-10.6v-21.1zm2.5-20.7c1.7-1.8 3.9-2.7 6.6-2.7s4.9 0.9 6.6 2.7 2.5 4.3 2.5 7.5-0.8 5.7-2.5 7.5-3.9 2.7-6.6 2.7-4.9-0.9-6.6-2.8c-1.7-1.8-2.6-4.3-2.6-7.4 0-3.2 0.9-5.7 2.6-7.5z"/>
			<circle class="st0" cx="429.7" cy="294.1" r="6.4"/>
		<polygon class="st0" points="64.2 299.9 77.4 299.9 77.4 241.1 64.2 252.2"/>
	<polygon class="st2" points="77.4 195.4 64.2 195.4 64.2 236.7 77.4 225.7"/>
		<path class="st2" d="m231.1 283.9h-25.3c0.1 2.7 0.8 4.7 2.1 5.9s2.9 1.8 4.8 1.8c1.7 0 3-0.4 4.1-1.2s1.8-1.9 2.2-3.2h11.8c-0.5 2.6-1.5 4.9-3.1 6.9s-3.7 3.6-6.1 4.8c-2.5 1.2-5.2 1.7-8.3 1.7-3.6 0-6.7-0.8-9.5-2.3s-4.9-3.7-6.5-6.5-2.3-6.1-2.3-9.9 0.8-7.1 2.3-10c1.5-2.8 3.7-5 6.5-6.5s6-2.3 9.5-2.3c3.6 0 6.8 0.7 9.5 2.2s4.9 3.6 6.4 6.2c1.5 2.7 2.3 5.8 2.3 9.2-0.1 1.1-0.2 2.1-0.4 3.2zm-12.9-10.1c-1.3-1.2-3-1.8-4.9-1.8-2 0-3.7 0.6-5.1 1.8-1.3 1.2-2.1 3-2.3 5.4h14.2c0.1-2.4-0.6-4.2-1.9-5.4z"/>
		<path class="st2" d="m265.4 265.4c2.4 1.5 4.2 3.7 5.6 6.5s2.1 6.1 2.1 10c0 3.8-0.7 7.1-2.1 9.9s-3.2 5-5.6 6.5-5.1 2.3-8.1 2.3c-2.8 0-5.2-0.6-7.2-1.9s-3.5-3-4.4-5.2v6.6h-11.2v-48.3h11.2v18.5c0.9-2.2 2.4-3.9 4.4-5.2s4.4-1.9 7.2-1.9c3 0 5.7 0.7 8.1 2.2zm-17.5 9.9c-1.5 1.6-2.3 3.8-2.3 6.5s0.8 4.9 2.3 6.5 3.4 2.4 5.8 2.4 4.3-0.8 5.8-2.3c1.5-1.6 2.2-3.7 2.2-6.5s-0.7-5-2.2-6.5c-1.5-1.6-3.4-2.3-5.8-2.3-2.3-0.1-4.3 0.7-5.8 2.2z"/>
		<path class="st2" d="m300.5 266.6c2.8 2.3 4.5 5.4 5.2 9.1h-10.4c-0.3-1.5-1-2.6-2.1-3.5-1.1-0.8-2.4-1.3-4-1.3-1.3 0-2.2 0.3-2.9 0.8s-1 1.3-1 2.3c0 1.1 0.6 2 1.8 2.5 1.2 0.6 3.1 1.1 5.6 1.7 2.8 0.7 5.1 1.3 6.9 2s3.3 1.8 4.6 3.3 2 3.6 2 6.1c0 2.1-0.6 3.9-1.7 5.5s-2.8 2.9-4.9 3.8-4.7 1.4-7.6 1.4c-4.9 0-8.9-1.1-11.8-3.3-3-2.2-4.8-5.3-5.4-9.3h10.8c0.2 1.6 0.8 2.8 2 3.6s2.6 1.2 4.5 1.2c1.3 0 2.2-0.3 2.9-0.9s1-1.4 1-2.3c0-1.3-0.6-2.2-1.8-2.7s-3.1-1.1-5.8-1.7-4.9-1.2-6.7-1.8c-1.7-0.7-3.2-1.7-4.5-3.2s-1.9-3.4-1.9-6c0-3.3 1.2-5.9 3.7-7.9s6-3 10.5-3c4.6 0.2 8.3 1.3 11 3.6z"/>
		<path class="st2" d="m310.6 249.2c1.2-1.1 2.8-1.7 4.8-1.7s3.6 0.6 4.8 1.7 1.8 2.5 1.8 4.2-0.6 3-1.8 4.1-2.8 1.7-4.8 1.7-3.6-0.6-4.8-1.7-1.8-2.5-1.8-4.1c0-1.7 0.6-3.1 1.8-4.2zm10.4 14.4v36.4h-11.2v-36.4h11.2z"/>
		<path class="st2" d="m346.7 290.5v9.6h-5c-4.3 0-7.6-1.1-10-3.2s-3.6-5.6-3.6-10.5v-13.4h-4.9v-9.4h4.9v-8.9h11.2v8.9h7.3v9.4h-7.3v13.6c0 1.4 0.3 2.4 0.9 3s1.6 0.8 3 0.8h3.5z"/>
		<path class="st2" d="m384.6 283.9h-25.3c0.1 2.7 0.8 4.7 2.1 5.9s2.9 1.8 4.8 1.8c1.7 0 3-0.4 4.1-1.2s1.8-1.9 2.2-3.2h11.8c-0.5 2.6-1.5 4.9-3.1 6.9s-3.7 3.6-6.1 4.8c-2.5 1.2-5.2 1.7-8.3 1.7-3.6 0-6.7-0.8-9.5-2.3s-4.9-3.7-6.5-6.5-2.4-6.1-2.4-9.9 0.8-7.1 2.3-10c1.5-2.8 3.7-5 6.5-6.5s6-2.3 9.5-2.3c3.6 0 6.8 0.7 9.5 2.2s4.9 3.6 6.4 6.2c1.5 2.7 2.3 5.8 2.3 9.2 0.1 1.1 0 2.1-0.3 3.2zm-12.9-10.1c-1.3-1.2-3-1.8-4.9-1.8-2 0-3.7 0.6-5.1 1.8-1.3 1.2-2.1 3-2.3 5.4h14.2c0.1-2.4-0.5-4.2-1.9-5.4z"/>
		<path class="st2" d="m412.5 266.6c2.8 2.3 4.5 5.4 5.2 9.1h-10.4c-0.3-1.5-1-2.6-2.1-3.5-1.1-0.8-2.4-1.3-4-1.3-1.3 0-2.2 0.3-2.9 0.8s-1 1.3-1 2.3c0 1.1 0.6 2 1.8 2.5 1.2 0.6 3.1 1.1 5.6 1.7 2.8 0.7 5.1 1.3 6.9 2s3.3 1.8 4.6 3.3 2 3.6 2 6.1c0 2.1-0.6 3.9-1.7 5.5s-2.8 2.9-4.9 3.8-4.7 1.4-7.6 1.4c-4.9 0-8.9-1.1-11.8-3.3-3-2.2-4.8-5.3-5.4-9.3h10.8c0.2 1.6 0.8 2.8 2 3.6s2.6 1.2 4.5 1.2c1.3 0 2.2-0.3 2.9-0.9s1-1.4 1-2.3c0-1.3-0.6-2.2-1.8-2.7s-3.1-1.1-5.8-1.7-4.9-1.2-6.7-1.8c-1.7-0.7-3.2-1.7-4.5-3.2s-1.9-3.4-1.9-6c0-3.3 1.2-5.9 3.7-7.9s6-3 10.5-3c4.5 0.2 8.2 1.3 11 3.6z"/>
	<polygon class="st2" points="185 263.6 180.2 289.9 173.2 263.6 161.3 263.6 154.5 289.9 149.7 263.6 140.7 271.2 147.9 300.1 160.3 300.1 167 275.6 173.6 300.1 186 300.1 195.4 263.6"/>
		<path class="st2" d="m95 265.5c0.8-0.8 1.9-1.1 3.3-1.1s2.4 0.4 3.3 1.1c0.8 0.8 1.2 1.7 1.2 2.8s-0.4 2.1-1.2 2.8c-0.8 0.8-1.9 1.1-3.3 1.1s-2.4-0.4-3.3-1.1c-0.8-0.8-1.2-1.7-1.2-2.8s0.4-2 1.2-2.8zm7 9.8v24.7h-7.6v-24.7h7.6z"/>
		<path class="st2" d="m127.9 277.9c1.7 1.9 2.5 4.5 2.5 7.8v14.3h-7.6v-13.4c0-1.6-0.4-2.9-1.3-3.9-0.9-0.9-2-1.4-3.5-1.4s-2.7 0.5-3.6 1.5-1.3 2.4-1.3 4.2v13h-7.6v-24.7h7.6v4.5c0.7-1.5 1.8-2.6 3.2-3.5s3-1.3 4.9-1.3c2.8 0 5 1 6.7 2.9z"/>
</svg>
